<?xml version="1.0" encoding="utf-8"?>
<!-- Generator: Adobe Illustrator 16.0.4, SVG Export Plug-In . SVG Version: 6.00 Build 0)  -->
<!DOCTYPE svg PUBLIC "-//W3C//DTD SVG 1.1//EN" "http://www.w3.org/Graphics/SVG/1.1/DTD/svg11.dtd">
<svg version="1.1" id="Ebene_1" xmlns="http://www.w3.org/2000/svg" xmlns:xlink="http://www.w3.org/1999/xlink" x="0px" y="0px"
	 width="1024px" height="1024px" viewBox="-506 -534 1024 1024" enable-background="new -506 -534 1024 1024" xml:space="preserve">
<path fill="none" d="M-506-533H518V491H-506V-533z"/>
<path d="M-102.667,183.224l80.223,80.224L262-21L-22.444-305.444l-80.223,80.224L44.11-77.888H-506V35.891H44.11L-102.667,183.224z
	 M404.222-533h-796.443C-455.334-533-506-481.776-506-419.222v227.556h113.778v-227.556h796.443v796.446h-796.443V149.669H-506
	v227.556C-506,439.779-455.334,491-392.222,491h796.443C466.779,491,518,439.779,518,377.225v-796.446
	C518-481.776,466.779-533,404.222-533z"/>
</svg>
