<?xml version="1.0" encoding="utf-8"?>
<!-- Generator: Adobe Illustrator 16.0.4, SVG Export Plug-In . SVG Version: 6.00 Build 0)  -->
<!DOCTYPE svg PUBLIC "-//W3C//DTD SVG 1.1//EN" "http://www.w3.org/Graphics/SVG/1.1/DTD/svg11.dtd">
<svg version="1.1" id="Ebene_1" xmlns="http://www.w3.org/2000/svg" xmlns:xlink="http://www.w3.org/1999/xlink" x="0px" y="0px"
	 width="1024px" height="1024px" viewBox="-500 -500 1024 1024" enable-background="new -500 -500 1024 1024" xml:space="preserve">
<path fill="none" d="M0,0h24v24H0V0z"/>
<path d="M68.889-500H-44.889V68.889H68.889V-500z M343.667-376.556l-80.778,80.778C352.777-223.528,410.223-112.583,410.223,12
	c0,220.167-178.056,398.223-398.223,398.223c-220.167,0-398.222-178.056-398.222-398.223c0-124.583,57.444-235.528,146.778-308.333
	l-80.222-80.222C-430.028-282.694-500-143.889-500,12c0,282.723,229.25,512,512,512c282.777,0,512-229.277,512-512
	C524-143.889,454-282.694,343.667-376.556z"/>
</svg>
